<svg width="134" height="21" viewBox="0 0 134 21" fill="none" xmlns="http://www.w3.org/2000/svg">
<path d="M1.41561e-07 20V2.675H11.6V5.95H3.9V9.575H10.75V12.85H3.9V20H1.41561e-07ZM18.5201 17.4C18.8868 17.4 19.2368 17.3917 19.5701 17.375C19.9035 17.3583 20.1701 17.3333 20.3701 17.3V14.475C20.2201 14.4417 19.9951 14.4083 19.6951 14.375C19.3951 14.3417 19.1201 14.325 18.8701 14.325C18.5201 14.325 18.1868 14.35 17.8701 14.4C17.5701 14.4333 17.3035 14.5083 17.0701 14.625C16.8368 14.7417 16.6535 14.9 16.5201 15.1C16.3868 15.3 16.3201 15.55 16.3201 15.85C16.3201 16.4333 16.5118 16.8417 16.8951 17.075C17.2951 17.2917 17.8368 17.4 18.5201 17.4ZM18.2201 6.5C19.3201 6.5 20.2368 6.625 20.9701 6.875C21.7035 7.125 22.2868 7.48333 22.7201 7.95C23.1701 8.41667 23.4868 8.98333 23.6701 9.65C23.8535 10.3167 23.9451 11.0583 23.9451 11.875V19.625C23.4118 19.7417 22.6701 19.875 21.7201 20.025C20.7701 20.1917 19.6201 20.275 18.2701 20.275C17.4201 20.275 16.6451 20.2 15.9451 20.05C15.2618 19.9 14.6701 19.6583 14.1701 19.325C13.6701 18.975 13.2868 18.525 13.0201 17.975C12.7535 17.425 12.6201 16.75 12.6201 15.95C12.6201 15.1833 12.7701 14.5333 13.0701 14C13.3868 13.4667 13.8035 13.0417 14.3201 12.725C14.8368 12.4083 15.4285 12.1833 16.0951 12.05C16.7618 11.9 17.4535 11.825 18.1701 11.825C18.6535 11.825 19.0785 11.85 19.4451 11.9C19.8285 11.9333 20.1368 11.9833 20.3701 12.05V11.7C20.3701 11.0667 20.1785 10.5583 19.7951 10.175C19.4118 9.79167 18.7451 9.6 17.7951 9.6C17.1618 9.6 16.5368 9.65 15.9201 9.75C15.3035 9.83333 14.7701 9.95833 14.3201 10.125L13.8451 7.125C14.0618 7.05833 14.3285 6.99167 14.6451 6.925C14.9785 6.84167 15.3368 6.775 15.7201 6.725C16.1035 6.65833 16.5035 6.60833 16.9201 6.575C17.3535 6.525 17.7868 6.5 18.2201 6.5ZM31.0885 17.325C31.7718 17.325 32.2551 17.2583 32.5385 17.125C32.8218 16.9917 32.9635 16.7333 32.9635 16.35C32.9635 16.05 32.7801 15.7917 32.4135 15.575C32.0468 15.3417 31.4885 15.0833 30.7385 14.8C30.1551 14.5833 29.6218 14.3583 29.1385 14.125C28.6718 13.8917 28.2718 13.6167 27.9385 13.3C27.6051 12.9667 27.3468 12.575 27.1635 12.125C26.9801 11.675 26.8885 11.1333 26.8885 10.5C26.8885 9.26667 27.3468 8.29167 28.2635 7.575C29.1801 6.85833 30.4385 6.5 32.0385 6.5C32.8385 6.5 33.6051 6.575 34.3385 6.725C35.0718 6.85833 35.6551 7.00833 36.0885 7.175L35.4385 10.075C35.0051 9.925 34.5301 9.79167 34.0135 9.675C33.5135 9.55833 32.9468 9.5 32.3135 9.5C31.1468 9.5 30.5635 9.825 30.5635 10.475C30.5635 10.625 30.5885 10.7583 30.6385 10.875C30.6885 10.9917 30.7885 11.1083 30.9385 11.225C31.0885 11.325 31.2885 11.4417 31.5385 11.575C31.8051 11.6917 32.1385 11.825 32.5385 11.975C33.3551 12.275 34.0301 12.575 34.5635 12.875C35.0968 13.1583 35.5135 13.475 35.8135 13.825C36.1301 14.1583 36.3468 14.5333 36.4635 14.95C36.5968 15.3667 36.6635 15.85 36.6635 16.4C36.6635 17.7 36.1718 18.6833 35.1885 19.35C34.2218 20.0167 32.8468 20.35 31.0635 20.35C29.8968 20.35 28.9218 20.25 28.1385 20.05C27.3718 19.85 26.8385 19.6833 26.5385 19.55L27.1635 16.525C27.7968 16.775 28.4468 16.975 29.1135 17.125C29.7801 17.2583 30.4385 17.325 31.0885 17.325ZM39.4473 20V1.2L43.1723 0.599999V6.9C43.4223 6.81667 43.7389 6.74167 44.1223 6.675C44.5223 6.59167 44.9056 6.55 45.2723 6.55C46.3389 6.55 47.2223 6.7 47.9223 7C48.6389 7.28333 49.2056 7.69167 49.6223 8.225C50.0556 8.75833 50.3556 9.39167 50.5223 10.125C50.7056 10.8583 50.7973 11.675 50.7973 12.575V20H47.0723V13.025C47.0723 11.825 46.9139 10.975 46.5973 10.475C46.2973 9.975 45.7306 9.725 44.8973 9.725C44.5639 9.725 44.2473 9.75833 43.9473 9.825C43.6639 9.875 43.4056 9.93333 43.1723 10V20H39.4473ZM57.8939 20H54.1689V6.85H57.8939V20ZM58.2439 3.05C58.2439 3.73333 58.0189 4.275 57.5689 4.675C57.1356 5.05833 56.6189 5.25 56.0189 5.25C55.4189 5.25 54.8939 5.05833 54.4439 4.675C54.0106 4.275 53.7939 3.73333 53.7939 3.05C53.7939 2.36667 54.0106 1.83333 54.4439 1.45C54.8939 1.05 55.4189 0.849999 56.0189 0.849999C56.6189 0.849999 57.1356 1.05 57.5689 1.45C58.0189 1.83333 58.2439 2.36667 58.2439 3.05ZM73.6955 13.4C73.6955 14.4333 73.5455 15.3833 73.2455 16.25C72.9455 17.1 72.5122 17.8333 71.9455 18.45C71.3788 19.05 70.6955 19.5167 69.8955 19.85C69.1122 20.1833 68.2288 20.35 67.2455 20.35C66.2788 20.35 65.3955 20.1833 64.5955 19.85C63.8122 19.5167 63.1372 19.05 62.5705 18.45C62.0038 17.8333 61.5622 17.1 61.2455 16.25C60.9288 15.3833 60.7705 14.4333 60.7705 13.4C60.7705 12.3667 60.9288 11.425 61.2455 10.575C61.5788 9.725 62.0288 9 62.5955 8.4C63.1788 7.8 63.8622 7.33333 64.6455 7C65.4455 6.66667 66.3122 6.5 67.2455 6.5C68.1955 6.5 69.0622 6.66667 69.8455 7C70.6455 7.33333 71.3288 7.8 71.8955 8.4C72.4622 9 72.9038 9.725 73.2205 10.575C73.5372 11.425 73.6955 12.3667 73.6955 13.4ZM69.8955 13.4C69.8955 12.25 69.6622 11.35 69.1955 10.7C68.7455 10.0333 68.0955 9.7 67.2455 9.7C66.3955 9.7 65.7372 10.0333 65.2705 10.7C64.8038 11.35 64.5705 12.25 64.5705 13.4C64.5705 14.55 64.8038 15.4667 65.2705 16.15C65.7372 16.8167 66.3955 17.15 67.2455 17.15C68.0955 17.15 68.7455 16.8167 69.1955 16.15C69.6622 15.4667 69.8955 14.55 69.8955 13.4ZM76.5811 7.3C77.2144 7.11667 78.0311 6.95 79.0311 6.8C80.0311 6.63333 81.0811 6.55 82.1811 6.55C83.2977 6.55 84.2227 6.7 84.9561 7C85.7061 7.28333 86.2977 7.69167 86.7311 8.225C87.1644 8.75833 87.4727 9.39167 87.6561 10.125C87.8394 10.8583 87.9311 11.675 87.9311 12.575V20H84.2061V13.025C84.2061 11.825 84.0477 10.975 83.7311 10.475C83.4144 9.975 82.8227 9.725 81.9561 9.725C81.6894 9.725 81.4061 9.74167 81.1061 9.775C80.8061 9.79167 80.5394 9.81667 80.3061 9.85V20H76.5811V7.3Z" fill="#004743"/>
<path d="M97.5586 20V2.675H109.259V5.95H101.459V9.35H108.384V12.55H101.459V16.725H109.834V20H97.5586ZM120.395 10.15C120.061 10.0667 119.67 9.98333 119.22 9.9C118.77 9.8 118.286 9.75 117.77 9.75C117.536 9.75 117.253 9.775 116.92 9.825C116.603 9.85833 116.361 9.9 116.195 9.95V20H112.47V7.55C113.136 7.31667 113.92 7.1 114.82 6.9C115.736 6.68333 116.753 6.575 117.87 6.575C118.07 6.575 118.311 6.59167 118.595 6.625C118.878 6.64167 119.161 6.675 119.445 6.725C119.728 6.75833 120.011 6.80833 120.295 6.875C120.578 6.925 120.82 6.99167 121.02 7.075L120.395 10.15ZM127.797 17.4C128.164 17.4 128.514 17.3917 128.847 17.375C129.181 17.3583 129.447 17.3333 129.647 17.3V14.475C129.497 14.4417 129.272 14.4083 128.972 14.375C128.672 14.3417 128.397 14.325 128.147 14.325C127.797 14.325 127.464 14.35 127.147 14.4C126.847 14.4333 126.581 14.5083 126.347 14.625C126.114 14.7417 125.931 14.9 125.797 15.1C125.664 15.3 125.597 15.55 125.597 15.85C125.597 16.4333 125.789 16.8417 126.172 17.075C126.572 17.2917 127.114 17.4 127.797 17.4ZM127.497 6.5C128.597 6.5 129.514 6.625 130.247 6.875C130.981 7.125 131.564 7.48333 131.997 7.95C132.447 8.41667 132.764 8.98333 132.947 9.65C133.131 10.3167 133.222 11.0583 133.222 11.875V19.625C132.689 19.7417 131.947 19.875 130.997 20.025C130.047 20.1917 128.897 20.275 127.547 20.275C126.697 20.275 125.922 20.2 125.222 20.05C124.539 19.9 123.947 19.6583 123.447 19.325C122.947 18.975 122.564 18.525 122.297 17.975C122.031 17.425 121.897 16.75 121.897 15.95C121.897 15.1833 122.047 14.5333 122.347 14C122.664 13.4667 123.081 13.0417 123.597 12.725C124.114 12.4083 124.706 12.1833 125.372 12.05C126.039 11.9 126.731 11.825 127.447 11.825C127.931 11.825 128.356 11.85 128.722 11.9C129.106 11.9333 129.414 11.9833 129.647 12.05V11.7C129.647 11.0667 129.456 10.5583 129.072 10.175C128.689 9.79167 128.022 9.6 127.072 9.6C126.439 9.6 125.814 9.65 125.197 9.75C124.581 9.83333 124.047 9.95833 123.597 10.125L123.122 7.125C123.339 7.05833 123.606 6.99167 123.922 6.925C124.256 6.84167 124.614 6.775 124.997 6.725C125.381 6.65833 125.781 6.60833 126.197 6.575C126.631 6.525 127.064 6.5 127.497 6.5Z" fill="#FBD103"/>
</svg>
